<svg width="53" height="37" viewBox="0 0 53 37" fill="none" xmlns="http://www.w3.org/2000/svg">
<g clip-path="url(#clip0_2402_552)">
<path d="M28.3189 10.875H27.3189H17.8889C16.8189 10.875 15.9089 11.545 15.6989 12.485L14.3589 18.485C14.0889 19.725 15.1389 20.875 16.5489 20.875H20.7789L19.2589 25.815C18.9389 26.845 19.7789 27.875 20.9389 27.875C21.5189 27.875 22.0789 27.635 22.4589 27.225L28.3189 20.875H32.3189V10.875H28.3189ZM21.7189 26.545C21.5289 26.755 21.2389 26.875 20.9389 26.875C20.6789 26.875 20.4389 26.765 20.3089 26.575C20.2389 26.475 20.1589 26.315 20.2189 26.105L21.7389 21.165L22.1389 19.875H20.7789H16.5489C16.1389 19.875 15.7489 19.705 15.5189 19.415C15.3989 19.265 15.2689 19.015 15.3389 18.695L16.6789 12.695C16.7789 12.225 17.2889 11.875 17.8889 11.875H27.3189V20.485L21.7189 26.545ZM31.3189 19.875H28.3189V11.875H31.3189V19.875Z" fill="#0F0F0F"/>
</g>
<defs>
<clipPath id="clip0_2402_552">
<rect width="24" height="24" fill="white" transform="translate(11.3188 6.875)"/>
</clipPath>
</defs>
</svg>
