<svg width="25" height="25" viewBox="0 0 25 25" fill="none" xmlns="http://www.w3.org/2000/svg">
<g clip-path="url(#clip0_2402_545)">
<path d="M19.0888 11.875H14.8588L16.3788 6.935C16.6988 5.905 15.8588 4.875 14.6988 4.875C14.1188 4.875 13.5588 5.115 13.1788 5.525L7.31885 11.875H3.31885V21.875H7.31885H8.31885H17.7488C18.8088 21.875 19.7288 21.205 19.9388 20.265L21.2788 14.265C21.5488 13.025 20.4988 11.875 19.0888 11.875ZM7.31885 20.875H4.31885V12.875H7.31885V20.875ZM20.2988 14.045L18.9588 20.045C18.8588 20.525 18.3488 20.875 17.7488 20.875H8.31885V12.265L13.9188 6.205C14.1088 5.995 14.3988 5.875 14.6988 5.875C14.9588 5.875 15.1988 5.985 15.3288 6.175C15.3988 6.275 15.4788 6.435 15.4188 6.645L13.8988 11.585L13.4988 12.875H14.8488H19.0788C19.4888 12.875 19.8788 13.045 20.1088 13.335C20.2388 13.485 20.3688 13.735 20.2988 14.045Z" fill="#0F0F0F"/>
</g>
<defs>
<clipPath id="clip0_2402_545">
<rect width="24" height="24" fill="white" transform="translate(0.318848 0.875)"/>
</clipPath>
</defs>
</svg>
